REM DIRINDEX 1\2,1\3
REM DIRNAME cjc122,folder01,folder02
TITLE ""
FILE "DaigakuNyushi150-08.mp3" MP3
  TRACK 01 AUDIO
    TITLE "3:cjc122_153"
    INDEX 01 00:00:00
  TRACK 02 AUDIO
    TITLE "0:"
    INDEX 01 00:01:43
  TRACK 03 AUDIO
    TITLE "2:cjc122_154"
    INDEX 01 00:02:06
  TRACK 04 AUDIO
    TITLE "0:"
    INDEX 01 00:05:70
  TRACK 05 AUDIO
    TITLE "2:cjc122_155"
    INDEX 01 00:06:33
  TRACK 06 AUDIO
    TITLE "0:"
    INDEX 01 00:09:59
  TRACK 07 AUDIO
    TITLE "3:cjc122_156"
    INDEX 01 00:10:22
  TRACK 08 AUDIO
    TITLE "0:"
    INDEX 01 00:11:66
  TRACK 09 AUDIO
    TITLE "2:cjc122_157"
    INDEX 01 00:12:18
  TRACK 10 AUDIO
    TITLE "0:"
    INDEX 01 00:15:60
  TRACK 11 AUDIO
    TITLE "2:cjc122_158"
    INDEX 01 00:16:12
  TRACK 12 AUDIO
    TITLE "0:"
    INDEX 01 00:19:00
  TRACK 13 AUDIO
    TITLE "3:cjc122_159"
    INDEX 01 00:19:30
  TRACK 14 AUDIO
    TITLE "0:"
    INDEX 01 00:21:04
  TRACK 15 AUDIO
    TITLE "2:cjc122_160"
    INDEX 01 00:21:36
  TRACK 16 AUDIO
    TITLE "0:"
    INDEX 01 00:27:27
  TRACK 17 AUDIO
    TITLE "2:cjc122_161"
    INDEX 01 00:27:59
  TRACK 18 AUDIO
    TITLE "0:"
    INDEX 01 00:33:30
  TRACK 19 AUDIO
    TITLE "2:cjc122_162"
    INDEX 01 00:33:65
  TRACK 20 AUDIO
    TITLE "0:"
    INDEX 01 00:39:28
  TRACK 21 AUDIO
    TITLE "3:cjc122_163"
    INDEX 01 00:39:58
  TRACK 22 AUDIO
    TITLE "0:"
    INDEX 01 00:41:32
  TRACK 23 AUDIO
    TITLE "2:cjc122_164"
    INDEX 01 00:41:70
  TRACK 24 AUDIO
    TITLE "0:"
    INDEX 01 00:45:59
  TRACK 25 AUDIO
    TITLE "2:cjc122_165"
    INDEX 01 00:46:11
  TRACK 26 AUDIO
    TITLE "0:"
    INDEX 01 00:49:72
  TRACK 27 AUDIO
    TITLE "3:cjc122_166"
    INDEX 01 00:50:27
  TRACK 28 AUDIO
    TITLE "0:"
    INDEX 01 00:51:73
  TRACK 29 AUDIO
    TITLE "2:cjc122_167"
    INDEX 01 00:52:39
  TRACK 30 AUDIO
    TITLE "0:"
    INDEX 01 00:57:01
  TRACK 31 AUDIO
    TITLE "2:cjc122_168"
    INDEX 01 00:57:36
  TRACK 32 AUDIO
    TITLE "0:"
    INDEX 01 01:01:25
  TRACK 33 AUDIO
    TITLE "3:cjc122_169"
    INDEX 01 01:01:60
  TRACK 34 AUDIO
    TITLE "0:"
    INDEX 01 01:03:37
  TRACK 35 AUDIO
    TITLE "2:cjc122_170"
    INDEX 01 01:03:70
  TRACK 36 AUDIO
    TITLE "0:"
    INDEX 01 01:08:40
  TRACK 37 AUDIO
    TITLE "2:cjc122_171"
    INDEX 01 01:08:67
  TRACK 38 AUDIO
    TITLE "0:"
    INDEX 01 01:14:66
  TRACK 39 AUDIO
    TITLE "3:cjc122_172"
    INDEX 01 01:15:23
  TRACK 40 AUDIO
    TITLE "0:"
    INDEX 01 01:16:72
  TRACK 41 AUDIO
    TITLE "2:cjc122_173"
    INDEX 01 01:17:30
  TRACK 42 AUDIO
    TITLE "0:"
    INDEX 01 01:22:16
  TRACK 43 AUDIO
    TITLE "2:cjc122_174"
    INDEX 01 01:22:46
  TRACK 44 AUDIO
    TITLE "0:"
    INDEX 01 01:26:21
  TRACK 45 AUDIO
    TITLE "3:cjc122_175"
    INDEX 01 01:26:54
  TRACK 46 AUDIO
    TITLE "0:"
    INDEX 01 01:28:15
  TRACK 47 AUDIO
    TITLE "2:cjc122_176"
    INDEX 01 01:28:47
  TRACK 48 AUDIO
    TITLE "0:"
    INDEX 01 01:32:22
  TRACK 49 AUDIO
    TITLE "2:cjc122_177"
    INDEX 01 01:32:57
  TRACK 50 AUDIO
    TITLE "0:"
    INDEX 01 01:35:05
  TRACK 51 AUDIO
    TITLE "3:cjc122_178"
    INDEX 01 01:35:40
  TRACK 52 AUDIO
    TITLE "0:"
    INDEX 01 01:37:12
  TRACK 53 AUDIO
    TITLE "2:cjc122_179"
    INDEX 01 01:37:47
  TRACK 54 AUDIO
    TITLE "0:"
    INDEX 01 01:42:12
  TRACK 55 AUDIO
    TITLE "2:cjc122_180"
    INDEX 01 01:42:39
  TRACK 56 AUDIO
    TITLE "0:"
    INDEX 01 01:46:09
  TRACK 57 AUDIO
    TITLE "3:cjc122_181"
    INDEX 01 01:46:36
  TRACK 58 AUDIO
    TITLE "0:"
    INDEX 01 01:47:48
  TRACK 59 AUDIO
    TITLE "2:cjc122_182"
    INDEX 01 01:48:02
  TRACK 60 AUDIO
    TITLE "0:"
    INDEX 01 01:51:28
